<svg width="350" height="349" viewBox="0 0 350 349" xmlns="http://www.w3.org/2000/svg">
  <g fill="none" fill-rule="evenodd">
    <rect stroke="#4ABF8A" stroke-width="9" fill="#FFF" x="4.5" y="4.5" width="341" height="340" rx="20"/>
    <path d="M268.24 138.086c21.085 0 38.24-17.515 38.24-39.043S289.325 60 268.24 60C247.153 60 230 77.515 230 99.043s17.154 39.043 38.24 39.043z" fill="#4ABF8A" fill-rule="nonzero"/>
    <path d="M6.02 251.123l72.697-80.53c11.108-13.618 20.165-13.618 27.173 0 10.51 20.43 43.189 83.112 56.055 102.3 12.865 19.187 22.394 29.276 36.84 14.638 14.446-14.638 31.614-40.535 42.55-54.938 13.679-18.013 20.615-6.961 26.014 0 14.218 18.335 61.765 69.663 71.423 82.698 6.44 8.69 6.44 18.397 0 29.124H19.612L6.018 334.143v-83.02z" fill="#4ABF8A"/>
  </g>
</svg>
