<svg width="114" height="102" viewBox="0 0 114 102" fill="none" xmlns="http://www.w3.org/2000/svg">
<path fill-rule="evenodd" clip-rule="evenodd" d="M0 79.3333V22.6667C0 16.4163 5.083 11.3333 11.3333 11.3333V90.6667C5.083 90.6667 0 85.5837 0 79.3333ZM102 90.6667V11.3333C108.25 11.3333 113.333 16.4163 113.333 22.6667V79.3333C113.333 85.5837 108.25 90.6667 102 90.6667Z" fill="#000000"/>
<path d="M34 0H79.3333C85.5837 0 90.6667 5.083 90.6667 11.3333V90.6667C90.6667 96.917 85.5837 102 79.3333 102H34C27.7497 102 22.6667 96.917 22.6667 90.6667V11.3333C22.6667 5.083 27.7497 0 34 0Z" fill="#18794E"/>
</svg>
